<svg width="3424" height="1467" viewBox="0 0 3424 1467" fill="none" xmlns="http://www.w3.org/2000/svg">
<g clip-path="url(#clip0_1231_65)">
<path d="M477.62 567.63C477.62 567.63 364.85 462.43 477.62 349.66C477.62 349.66 576.26 261.43 583.58 253.54C588.85 247.86 686.51 150.61 688.78 137.74C691.05 124.87 694.83 28 688.78 0L397.63 322.84C390.8 330.41 385.44 339.17 381.85 348.72C367.63 386.61 350.25 480.76 477.61 567.63H477.62Z" fill="url(#paint0_linear_1231_65)"/>
<path d="M486.89 498.76C486.89 498.76 607.32 605.85 494.56 718.62C494.56 718.62 407.24 813.98 400.43 822.31C393.62 830.64 305.83 933.94 303.55 946.81C301.28 959.68 302.79 1062.61 308.85 1090.61L571 754.95C576.41 747.96 586.77 731.52 591.15 722.31C614.4 673.41 614.26 585.62 486.9 498.76H486.89Z" fill="url(#paint1_linear_1231_65)"/>
<path d="M453.78 500.46C453.78 500.46 512.16 574.37 459.95 635.27C458.03 637.51 455.95 639.57 453.82 641.6C441.55 653.3 397.68 695.18 393.99 699.69C389.7 704.94 308.01 781.26 306.58 789.38C305.15 797.49 302.72 870.11 306.53 887.77L496.64 675.34C507.28 664.13 516.59 647.12 519.52 641.4C528.71 623.4 534.09 555.23 453.79 500.47L453.78 500.46Z" fill="url(#paint2_linear_1231_65)"/>
<path d="M221.05 824.2L214.24 904.8C214.24 904.8 76.8699 999.03 58.7099 1129.58C40.5499 1260.13 285.76 1328.25 326.63 1337.33C367.5 1346.41 881.77 1464.48 1758.19 1269.21C2634.61 1073.95 2938.86 880.95 3131.85 758.34C3324.84 635.73 3372.52 530.15 3374.79 468.85C3377.06 407.55 3305.92 126.38 2154.77 226.28C2154.77 226.28 3297.6 49.94 3415.66 431.38C3533.72 812.82 2321.27 1180.65 2321.27 1180.65C2321.27 1180.65 1466.85 1457.65 695.23 1432.68C-76.3901 1407.7 -160.4 1117.08 221.05 824.18V824.2Z" fill="url(#paint3_linear_1231_65)"/>
<path d="M404.68 1466.18C452.801 1466.18 491.81 1427.17 491.81 1379.05C491.81 1330.93 452.801 1291.92 404.68 1291.92C356.559 1291.92 317.55 1330.93 317.55 1379.05C317.55 1427.17 356.559 1466.18 404.68 1466.18Z" fill="url(#paint4_radial_1231_65)"/>
<path d="M857.04 473.58V520.31H992.61C1033.45 520.31 1046.92 530.84 1046.92 571.68V601.57C1046.92 642.41 1033.45 652.94 992.61 652.94H858.3C817.46 652.94 803.99 642.41 803.99 601.57V595.68L848.62 586.42V612.1H1002.3V562.42H866.73C825.89 562.42 812.84 551.89 812.84 511.05V487.05C812.84 446.21 825.89 435.68 866.73 435.68H990.09C1028.83 435.68 1043.98 445.78 1043.98 483.26V487.89L999.35 498.42V473.58H857.04Z" fill="#FACB0D"/>
<path d="M1116.4 519.06H1214.5V562.43H1116.4V519.06Z" fill="#FACB0D"/>
<path d="M1290.7 435.69H1341.22V519.9H1499.11V435.69H1550.06V652.94H1499.11V559.47H1341.22V652.94H1290.7V435.69Z" fill="#FACB0D"/>
<path d="M1710.47 435.69H1870.46C1911.3 435.69 1924.35 446.22 1924.35 487.06V601.58C1924.35 642.42 1911.3 652.95 1870.46 652.95H1710.47C1669.63 652.95 1656.58 642.42 1656.58 601.58V487.06C1656.58 446.22 1669.63 435.69 1710.47 435.69ZM1873.83 612.1V474.42H1707.1V612.1H1873.83Z" fill="#FACB0D"/>
<path d="M2030.45 435.69H2071.29L2173.6 567.05L2273.81 435.69H2314.23V652.94H2267.5V518.63C2267.5 514.42 2267.92 506.84 2269.18 495.47C2264.55 505.15 2260.34 513.15 2256.55 518.21L2174.87 626.84H2164.76L2083.08 517.79C2078.03 511.05 2073.4 503.9 2070.03 495.48C2070.87 504.32 2071.29 511.48 2071.29 518.64V652.95H2030.45V435.7V435.69Z" fill="#FACB0D"/>
<path d="M2420.75 435.69H2643.06V472.74H2471.28V521.16H2571.49V558.21H2471.28V612.1H2645.17V652.94H2420.76V435.69H2420.75Z" fill="#FACB0D"/>
<path d="M671.38 758.04H632.83V744.12H726.67V758.04H687.93V870.88H671.38V758.04Z" fill="#E99936"/>
<path d="M806.41 811.45H757.14V857.15H812.06V870.88H740.78V744.12H809.24V757.85H757.15V797.91H806.42V811.45H806.41Z" fill="#E99936"/>
<path d="M833.3 745.82C841.57 744.13 853.42 743.19 864.71 743.19C882.2 743.19 893.48 746.39 901.38 753.53C907.77 759.17 911.35 767.82 911.35 777.6C911.35 794.34 900.82 805.43 887.47 809.95V810.51C897.25 813.9 903.08 822.92 906.09 836.09C910.23 853.77 913.24 865.99 915.87 870.88H898.94C896.87 867.31 894.05 856.4 890.48 840.6C886.72 823.11 879.95 816.53 865.09 815.96H849.67V870.88H833.31V745.82H833.3ZM849.66 803.56H866.4C883.89 803.56 894.99 793.97 894.99 779.49C894.99 763.13 883.14 755.98 865.84 755.79C857.94 755.79 852.3 756.54 849.67 757.29V803.55L849.66 803.56Z" fill="#E99936"/>
<path d="M950.84 744.13V819.17C950.84 847.57 963.44 859.6 980.37 859.6C999.18 859.6 1011.21 847.19 1011.21 819.17V744.13H1027.76V818.04C1027.76 856.97 1007.26 872.96 979.8 872.96C953.85 872.96 934.29 858.1 934.29 818.8V744.14H950.84V744.13Z" fill="#E99936"/>
<path d="M1053.89 850.95C1061.22 855.46 1071.94 859.22 1083.23 859.22C1099.97 859.22 1109.75 850.38 1109.75 837.59C1109.75 825.74 1102.98 818.97 1085.87 812.39C1065.18 805.06 1052.39 794.34 1052.39 776.47C1052.39 756.72 1068.75 742.05 1093.39 742.05C1106.37 742.05 1115.77 745.06 1121.41 748.26L1116.9 761.61C1112.76 759.35 1104.3 755.59 1092.83 755.59C1075.53 755.59 1068.95 765.93 1068.95 774.58C1068.95 786.43 1076.66 792.26 1094.15 799.03C1115.59 807.3 1126.5 817.65 1126.5 836.27C1126.5 855.83 1112.02 872.75 1082.12 872.75C1069.9 872.75 1056.54 869.18 1049.77 864.66L1053.91 850.93L1053.89 850.95Z" fill="#E99936"/>
<path d="M1295.55 815.21C1294.61 797.53 1293.48 776.28 1293.67 760.48H1293.11C1288.78 775.34 1283.52 791.13 1277.12 808.62L1254.74 870.12H1242.33L1221.83 809.75C1215.81 791.88 1210.73 775.52 1207.16 760.48H1206.78C1206.4 776.28 1205.46 797.53 1204.34 816.52L1200.96 870.87H1185.35L1194.19 744.11H1215.07L1236.7 805.42C1241.97 821.03 1246.29 834.95 1249.49 848.11H1250.05C1253.25 835.32 1257.76 821.4 1263.4 805.42L1285.97 744.11H1306.85L1314.75 870.87H1298.76L1295.56 815.2L1295.55 815.21Z" fill="#E99936"/>
<path d="M1405.56 811.45H1356.29V857.15H1411.21V870.88H1339.93V744.12H1408.39V757.85H1356.3V797.91H1405.57V811.45H1405.56Z" fill="#E99936"/>
<path d="M1432.45 870.88V744.12H1450.32L1490.94 808.25C1500.34 823.11 1507.68 836.46 1513.7 849.44L1514.08 849.25C1512.58 832.32 1512.2 816.9 1512.2 797.16V744.13H1527.62V870.89H1511.07L1470.82 806.57C1461.98 792.47 1453.52 777.98 1447.12 764.26L1446.56 764.45C1447.5 780.44 1447.88 795.67 1447.88 816.73V870.89H1432.46L1432.45 870.88Z" fill="#E99936"/>
<path d="M1644.77 866.74C1638.75 869.75 1626.72 872.76 1611.29 872.76C1575.56 872.76 1548.66 850.19 1548.66 808.63C1548.66 767.07 1575.55 742.06 1614.86 742.06C1630.66 742.06 1640.63 745.45 1644.95 747.7L1641 761.05C1634.79 758.04 1625.95 755.78 1615.42 755.78C1585.71 755.78 1565.96 774.77 1565.96 808.06C1565.96 839.09 1583.83 859.03 1614.67 859.03C1624.64 859.03 1634.79 856.96 1641.38 853.76L1644.76 866.74H1644.77Z" fill="#E99936"/>
<path d="M1681.62 744.13V870.89H1665.26V744.13H1681.62Z" fill="#E99936"/>
<path d="M1710.21 745.63C1718.11 744.31 1728.45 743.19 1741.62 743.19C1757.79 743.19 1769.64 746.95 1777.16 753.72C1784.12 759.74 1788.26 768.95 1788.26 780.24C1788.26 791.53 1784.87 800.74 1778.48 807.32C1769.83 816.54 1755.72 821.24 1739.74 821.24C1734.85 821.24 1730.34 821.05 1726.57 820.11V870.89H1710.21V745.64V745.63ZM1726.57 806.75C1730.14 807.69 1734.66 808.07 1740.11 808.07C1759.86 808.07 1771.89 798.48 1771.89 780.99C1771.89 763.5 1760.04 756.17 1741.99 756.17C1734.84 756.17 1729.39 756.73 1726.57 757.49V806.76V806.75Z" fill="#E99936"/>
<path d="M1834.33 758.04H1795.78V744.12H1889.62V758.04H1850.88V870.88H1834.33V758.04Z" fill="#E99936"/>
<path d="M1910.12 831.01L1896.95 870.88H1880.02L1923.09 744.12H1942.84L1986.09 870.88H1968.6L1955.06 831.01H1910.11H1910.12ZM1951.68 818.22L1939.27 781.74C1936.45 773.47 1934.57 765.94 1932.69 758.61H1932.31C1930.43 766.13 1928.36 773.84 1925.92 781.55L1913.51 818.22H1951.69H1951.68Z" fill="#E99936"/>
<path d="M2004.71 744.13H2021.07V805.25H2021.63C2025.01 800.36 2028.4 795.85 2031.6 791.71L2070.34 744.13H2090.65L2044.76 797.92L2094.22 870.89H2074.85L2033.1 808.64L2021.06 822.56V870.89H2004.7V744.13H2004.71Z" fill="#E99936"/>
<path d="M2129.02 831.01L2115.85 870.88H2098.92L2141.99 744.12H2161.74L2204.99 870.88H2187.5L2173.96 831.01H2129.01H2129.02ZM2170.58 818.22L2158.17 781.74C2155.35 773.47 2153.47 765.94 2151.59 758.61H2151.21C2149.33 766.13 2147.26 773.84 2144.82 781.55L2132.41 818.22H2170.59H2170.58Z" fill="#E99936"/>
<path d="M2223.61 870.88V744.12H2241.48L2282.1 808.25C2291.5 823.11 2298.84 836.46 2304.86 849.44L2305.24 849.25C2303.74 832.32 2303.36 816.9 2303.36 797.16V744.13H2318.78V870.89H2302.23L2261.98 806.57C2253.14 792.47 2244.68 777.98 2238.28 764.26L2237.72 764.45C2238.66 780.44 2239.04 795.67 2239.04 816.73V870.89H2223.62L2223.61 870.88Z" fill="#E99936"/>
<path d="M2387.22 870.88V744.12H2405.09L2445.71 808.25C2455.11 823.11 2462.45 836.46 2468.47 849.44L2468.85 849.25C2467.35 832.32 2466.97 816.9 2466.97 797.16V744.13H2482.39V870.89H2465.84L2425.59 806.57C2416.75 792.47 2408.29 777.98 2401.89 764.26L2401.33 764.45C2402.27 780.44 2402.65 795.67 2402.65 816.73V870.89H2387.23L2387.22 870.88Z" fill="#E99936"/>
<path d="M2527.32 744.13V870.89H2510.96V744.13H2527.32Z" fill="#E99936"/>
<path d="M2555.91 744.13H2572.27V857.16H2626.43V870.89H2555.91V744.13Z" fill="#E99936"/>
<path d="M2665.17 831.01L2652 870.88H2635.07L2678.14 744.12H2697.89L2741.14 870.88H2723.65L2710.11 831.01H2665.16H2665.17ZM2706.73 818.22L2694.32 781.74C2691.5 773.47 2689.62 765.94 2687.74 758.61H2687.36C2685.48 766.13 2683.41 773.84 2680.97 781.55L2668.56 818.22H2706.74H2706.73Z" fill="#E99936"/>
<path d="M2776.12 744.13V870.89H2759.76V744.13H2776.12Z" fill="#E99936"/>
</g>
<defs>
<linearGradient id="paint0_linear_1231_65" x1="385.6" y1="283.81" x2="705.59" y2="283.81" gradientUnits="userSpaceOnUse">
<stop offset="0.19" stop-color="#B11E2E"/>
<stop offset="0.79" stop-color="#FCE600"/>
</linearGradient>
<linearGradient id="paint1_linear_1231_65" x1="302.54" y1="794.68" x2="602.95" y2="794.68" gradientUnits="userSpaceOnUse">
<stop stop-color="#2D408B"/>
<stop offset="0.28" stop-color="#1F82C6"/>
<stop offset="0.45" stop-color="#25ABDD"/>
<stop offset="0.59" stop-color="#24AAEB"/>
<stop offset="1" stop-color="#35B35B"/>
</linearGradient>
<linearGradient id="paint2_linear_1231_65" x1="304.48" y1="694.12" x2="524.55" y2="694.12" gradientUnits="userSpaceOnUse">
<stop stop-color="#2D408B"/>
<stop offset="0.28" stop-color="#1F82C6"/>
<stop offset="0.45" stop-color="#25ABDD"/>
<stop offset="0.59" stop-color="#24AAEB"/>
<stop offset="1" stop-color="#35B35B"/>
</linearGradient>
<linearGradient id="paint3_linear_1231_65" x1="-0.00012681" y1="809.94" x2="3423.76" y2="809.94" gradientUnits="userSpaceOnUse">
<stop stop-color="#EF984A"/>
<stop offset="0.33" stop-color="#FBF141"/>
</linearGradient>
<radialGradient id="paint4_radial_1231_65" cx="0" cy="0" r="1" gradientUnits="userSpaceOnUse" gradientTransform="translate(404.68 1379.05) scale(87.13)">
<stop offset="0.07" stop-color="#FFE045"/>
<stop offset="0.31" stop-color="#F8B23E"/>
<stop offset="0.5" stop-color="#F69D3F"/>
<stop offset="0.63" stop-color="#FC9F40"/>
<stop offset="0.88" stop-color="#E56325"/>
<stop offset="1" stop-color="#CC704F"/>
</radialGradient>
<clipPath id="clip0_1231_65">
<rect width="3423.76" height="1466.18" fill="white"/>
</clipPath>
</defs>
</svg>
