<svg width="1095" height="1438" viewBox="0 0 1095 1438" fill="none" xmlns="http://www.w3.org/2000/svg">
<path d="M526.684 567.63C526.684 567.63 413.914 462.43 526.684 349.66C526.684 349.66 625.324 261.43 632.644 253.54C637.914 247.86 735.574 150.61 737.844 137.74C740.114 124.87 743.894 28 737.844 0L446.694 322.84C439.864 330.41 434.504 339.17 430.914 348.72C416.694 386.61 399.314 480.76 526.674 567.63H526.684Z" fill="url(#paint0_linear_1231_1769)"/>
<path d="M535.954 498.76C535.954 498.76 656.384 605.85 543.624 718.62C543.624 718.62 456.304 813.98 449.494 822.31C442.684 830.64 354.894 933.94 352.614 946.81C350.344 959.68 351.854 1062.61 357.914 1090.61L620.064 754.95C625.474 747.96 635.834 731.52 640.214 722.31C663.464 673.41 663.324 585.62 535.964 498.76H535.954Z" fill="url(#paint1_linear_1231_1769)"/>
<path d="M502.843 500.46C502.843 500.46 561.223 574.37 509.013 635.27C507.093 637.51 505.013 639.57 502.883 641.6C490.613 653.3 446.743 695.18 443.053 699.69C438.763 704.94 357.073 781.26 355.643 789.38C354.213 797.49 351.783 870.11 355.593 887.77L545.703 675.34C556.343 664.13 565.653 647.12 568.583 641.4C577.773 623.4 583.153 555.23 502.853 500.47L502.843 500.46Z" fill="url(#paint2_linear_1231_1769)"/>
<g filter="url(#filter0_d_1231_1769)">
<path d="M359.565 694.509L344.064 731.5C344.064 731.5 -16.4571 912.858 33.0641 1046.5C55.9446 1108.25 170.063 1119.06 177.063 1121C186.063 1123.5 343.954 1151.38 601.197 1064.9C858.44 978.426 947.743 892.953 1004.39 838.654C1061.03 784.354 1069.4 735.148 1070.07 708C1070.07 672.5 1024.07 569.5 681.066 608C681.066 608 1053.04 524.929 1087.69 693.855C1122.34 862.781 766.47 1025.68 766.47 1025.68C766.47 1025.68 461.048 1165.06 234.565 1154C-29.4365 1165.5 -157.937 932 359.565 694.5V694.509Z" fill="url(#paint3_linear_1231_1769)"/>
</g>
<path d="M129.063 1186C161.096 1186 187.063 1160.03 187.063 1128C187.063 1095.97 161.096 1070 129.063 1070C97.031 1070 71.0635 1095.97 71.0635 1128C71.0635 1160.03 97.031 1186 129.063 1186Z" fill="url(#paint4_radial_1231_1769)"/>
<path d="M218.727 1229.82V1248.09H271.733C287.701 1248.09 292.968 1252.21 292.968 1268.17V1279.86C292.968 1295.83 287.701 1299.95 271.733 1299.95H219.22C203.252 1299.95 197.985 1295.83 197.985 1279.86V1277.56L215.435 1273.94V1283.98H275.522V1264.55H222.516C206.548 1264.55 201.446 1260.44 201.446 1244.47V1235.09C201.446 1219.12 206.548 1215 222.516 1215H270.748C285.895 1215 291.818 1218.95 291.818 1233.6V1235.41L274.369 1239.53V1229.82H218.727Z" fill="#FACB0D"/>
<path d="M320.134 1247.6H358.49V1264.56H320.134V1247.6Z" fill="#FACB0D"/>
<path d="M388.283 1215H408.036V1247.93H469.769V1215H489.69V1299.95H469.769V1263.4H408.036V1299.95H388.283V1215Z" fill="#FACB0D"/>
<path d="M552.408 1215H614.962C630.93 1215 636.032 1219.12 636.032 1235.09V1279.86C636.032 1295.83 630.93 1299.95 614.962 1299.95H552.408C536.44 1299.95 531.337 1295.83 531.337 1279.86V1235.09C531.337 1219.12 536.44 1215 552.408 1215ZM616.279 1283.98V1230.15H551.09V1283.98H616.279Z" fill="#FACB0D"/>
<path d="M677.516 1215H693.484L733.486 1266.36L772.667 1215H788.471V1299.95H770.2V1247.43C770.2 1245.79 770.364 1242.82 770.857 1238.38C769.046 1242.16 767.4 1245.29 765.918 1247.27L733.983 1289.74H730.03L698.094 1247.1C696.119 1244.47 694.309 1241.67 692.991 1238.38C693.32 1241.84 693.484 1244.64 693.484 1247.44V1299.95H677.516V1215.01V1215Z" fill="#FACB0D"/>
<path d="M830.119 1215H917.039V1229.49H849.875V1248.42H889.056V1262.91H849.875V1283.98H917.864V1299.95H830.123V1215H830.119Z" fill="#FACB0D"/>
<path d="M99.8807 1386.21H83.0635V1379.93H124.001V1386.21H107.101V1437.06H99.8807V1386.21Z" fill="#E99936"/>
<path d="M158.787 1410.28H137.293V1430.87H161.252V1437.06H130.156V1379.93H160.021V1386.12H137.297V1404.18H158.791V1410.28H158.787Z" fill="#E99936"/>
<path d="M170.518 1380.7C174.126 1379.94 179.295 1379.51 184.221 1379.51C191.851 1379.51 196.771 1380.96 200.218 1384.17C203.005 1386.72 204.567 1390.61 204.567 1395.02C204.567 1402.57 199.973 1407.56 194.15 1409.6V1409.85C198.416 1411.38 200.959 1415.45 202.272 1421.38C204.079 1429.35 205.392 1434.86 206.539 1437.06H199.153C198.25 1435.45 197.02 1430.54 195.463 1423.42C193.822 1415.53 190.869 1412.57 184.386 1412.31H177.659V1437.06H170.523V1380.7H170.518ZM177.655 1406.72H184.958C192.588 1406.72 197.43 1402.4 197.43 1395.87C197.43 1388.5 192.261 1385.28 184.714 1385.19C181.267 1385.19 178.807 1385.53 177.659 1385.87V1406.72L177.655 1406.72Z" fill="#E99936"/>
<path d="M221.794 1379.94V1413.76C221.794 1426.56 227.291 1431.98 234.676 1431.98C242.882 1431.98 248.13 1426.39 248.13 1413.76V1379.94H255.35V1413.25C255.35 1430.79 246.407 1438 234.428 1438C223.107 1438 214.574 1431.3 214.574 1413.59V1379.94H221.794V1379.94Z" fill="#E99936"/>
<path d="M266.749 1428.08C269.947 1430.11 274.623 1431.81 279.548 1431.81C286.851 1431.81 291.118 1427.82 291.118 1422.06C291.118 1416.72 288.164 1413.67 280.7 1410.7C271.674 1407.4 266.095 1402.57 266.095 1394.51C266.095 1385.61 273.232 1379 283.981 1379C289.643 1379 293.744 1380.36 296.204 1381.8L294.237 1387.82C292.431 1386.8 288.74 1385.1 283.736 1385.1C276.189 1385.1 273.319 1389.76 273.319 1393.66C273.319 1399 276.682 1401.63 284.312 1404.68C293.665 1408.41 298.425 1413.07 298.425 1421.46C298.425 1430.28 292.108 1437.91 279.064 1437.91C273.733 1437.91 267.905 1436.3 264.952 1434.26L266.758 1428.07L266.749 1428.08Z" fill="#E99936"/>
<path d="M372.172 1411.97C371.762 1404 371.269 1394.43 371.352 1387.31H371.107C369.218 1394 366.924 1401.12 364.132 1409L354.369 1436.72H348.955L340.012 1409.51C337.385 1401.46 335.169 1394.08 333.612 1387.31H333.446C333.28 1394.43 332.87 1404 332.382 1412.56L330.907 1437.06H324.097L327.954 1379.93H337.063L346.499 1407.56C348.798 1414.6 350.682 1420.87 352.078 1426.8H352.323C353.719 1421.04 355.686 1414.76 358.146 1407.56L367.992 1379.93H377.101L380.548 1437.06H373.572L372.176 1411.97L372.172 1411.97Z" fill="#E99936"/>
<path d="M420.164 1410.28H398.67V1430.87H422.628V1437.06H391.533V1379.93H421.398V1386.12H398.674V1404.18H420.168V1410.28H420.164Z" fill="#E99936"/>
<path d="M431.894 1437.06V1379.93H439.69L457.41 1408.84C461.511 1415.53 464.713 1421.55 467.339 1427.4L467.505 1427.31C466.85 1419.68 466.684 1412.73 466.684 1403.84V1379.94H473.411V1437.07H466.191L448.633 1408.08C444.776 1401.72 441.086 1395.19 438.294 1389.01L438.049 1389.1C438.459 1396.3 438.625 1403.17 438.625 1412.66V1437.07H431.898L431.894 1437.06Z" fill="#E99936"/>
<path d="M524.517 1435.2C521.891 1436.55 516.643 1437.91 509.912 1437.91C494.325 1437.91 482.59 1427.74 482.59 1409.01C482.59 1390.28 494.32 1379 511.469 1379C518.362 1379 522.711 1380.53 524.596 1381.55L522.873 1387.56C520.164 1386.21 516.307 1385.19 511.713 1385.19C498.753 1385.19 490.137 1393.75 490.137 1408.75C490.137 1422.74 497.933 1431.72 511.386 1431.72C515.736 1431.72 520.164 1430.79 523.038 1429.35L524.513 1435.2H524.517Z" fill="#E99936"/>
<path d="M540.593 1379.94V1437.07H533.456V1379.94H540.593Z" fill="#E99936"/>
<path d="M553.065 1380.61C556.511 1380.02 561.022 1379.51 566.768 1379.51C573.822 1379.51 578.991 1381.21 582.272 1384.26C585.308 1386.97 587.114 1391.12 587.114 1396.21C587.114 1401.3 585.635 1405.45 582.848 1408.42C579.074 1412.57 572.919 1414.69 565.947 1414.69C563.814 1414.69 561.847 1414.6 560.202 1414.18V1437.07H553.065V1380.62V1380.61ZM560.202 1408.16C561.76 1408.58 563.731 1408.75 566.109 1408.75C574.725 1408.75 579.973 1404.43 579.973 1396.55C579.973 1388.67 574.803 1385.36 566.929 1385.36C563.81 1385.36 561.432 1385.62 560.202 1385.96V1408.16V1408.16Z" fill="#E99936"/>
<path d="M607.212 1386.21H590.395V1379.93H631.332V1386.21H614.432V1437.06H607.212V1386.21Z" fill="#E99936"/>
<path d="M640.275 1419.09L634.529 1437.06H627.144L645.933 1379.93H654.549L673.416 1437.06H665.786L659.88 1419.09H640.27H640.275ZM658.405 1413.33L652.991 1396.89C651.761 1393.16 650.941 1389.77 650.121 1386.46H649.955C649.135 1389.85 648.232 1393.33 647.168 1396.8L641.754 1413.33H658.41H658.405Z" fill="#E99936"/>
<path d="M681.54 1379.94H688.677V1407.48H688.921C690.396 1405.28 691.875 1403.25 693.271 1401.38L710.171 1379.94H719.031L699.012 1404.18L720.588 1437.07H712.138L693.925 1409.01L688.673 1415.29V1437.07H681.536V1379.94H681.54Z" fill="#E99936"/>
<path d="M735.769 1419.09L730.024 1437.06H722.638L741.427 1379.93H750.043L768.911 1437.06H761.281L755.374 1419.09H735.765H735.769ZM753.9 1413.33L748.486 1396.89C747.256 1393.16 746.435 1389.77 745.615 1386.46H745.449C744.629 1389.85 743.726 1393.33 742.662 1396.8L737.248 1413.33H753.904H753.9Z" fill="#E99936"/>
<path d="M777.034 1437.06V1379.93H784.829L802.55 1408.84C806.65 1415.53 809.853 1421.55 812.479 1427.4L812.644 1427.31C811.99 1419.68 811.824 1412.73 811.824 1403.84V1379.94H818.551V1437.07H811.331L793.772 1408.08C789.916 1401.72 786.225 1395.19 783.433 1389.01L783.189 1389.1C783.599 1396.3 783.765 1403.17 783.765 1412.66V1437.07H777.038L777.034 1437.06Z" fill="#E99936"/>
<path d="M848.408 1437.06V1379.93H856.203L873.924 1408.84C878.024 1415.53 881.226 1421.55 883.853 1427.4L884.018 1427.31C883.364 1419.68 883.198 1412.73 883.198 1403.84V1379.94H889.925V1437.07H882.705L865.146 1408.08C861.29 1401.72 857.599 1395.19 854.807 1389.01L854.563 1389.1C854.973 1396.3 855.139 1403.17 855.139 1412.66V1437.07H848.412L848.408 1437.06Z" fill="#E99936"/>
<path d="M909.526 1379.94V1437.07H902.389V1379.94H909.526Z" fill="#E99936"/>
<path d="M921.998 1379.94H929.135V1430.88H952.762V1437.07H921.998V1379.94Z" fill="#E99936"/>
<path d="M969.662 1419.09L963.917 1437.06H956.531L975.32 1379.93H983.936L1002.8 1437.06H995.174L989.267 1419.09H969.658H969.662ZM987.793 1413.33L982.379 1396.89C981.149 1393.16 980.329 1389.77 979.508 1386.46H979.343C978.523 1389.85 977.619 1393.33 976.555 1396.8L971.141 1413.33H987.797H987.793Z" fill="#E99936"/>
<path d="M1018.06 1379.94V1437.07H1010.93V1379.94H1018.06Z" fill="#E99936"/>
<defs>
<filter id="filter0_d_1231_1769" x="-0.000152588" y="587.576" width="1094.07" height="575.049" filterUnits="userSpaceOnUse" color-interpolation-filters="sRGB">
<feFlood flood-opacity="0" result="BackgroundImageFix"/>
<feColorMatrix in="SourceAlpha" type="matrix" values="0 0 0 0 0 0 0 0 0 0 0 0 0 0 0 0 0 0 127 0" result="hardAlpha"/>
<feOffset dy="4"/>
<feGaussianBlur stdDeviation="2"/>
<feComposite in2="hardAlpha" operator="out"/>
<feColorMatrix type="matrix" values="0 0 0 0 0 0 0 0 0 0 0 0 0 0 0 0 0 0 0.25 0"/>
<feBlend mode="normal" in2="BackgroundImageFix" result="effect1_dropShadow_1231_1769"/>
<feBlend mode="normal" in="SourceGraphic" in2="effect1_dropShadow_1231_1769" result="shape"/>
</filter>
<linearGradient id="paint0_linear_1231_1769" x1="434.664" y1="283.81" x2="754.654" y2="283.81" gradientUnits="userSpaceOnUse">
<stop offset="0.19" stop-color="#B11E2E"/>
<stop offset="0.79" stop-color="#FCE600"/>
</linearGradient>
<linearGradient id="paint1_linear_1231_1769" x1="351.604" y1="794.68" x2="652.014" y2="794.68" gradientUnits="userSpaceOnUse">
<stop stop-color="#2D408B"/>
<stop offset="0.28" stop-color="#1F82C6"/>
<stop offset="0.45" stop-color="#25ABDD"/>
<stop offset="0.59" stop-color="#24AAEB"/>
<stop offset="1" stop-color="#35B35B"/>
</linearGradient>
<linearGradient id="paint2_linear_1231_1769" x1="353.543" y1="694.12" x2="573.613" y2="694.12" gradientUnits="userSpaceOnUse">
<stop stop-color="#2D408B"/>
<stop offset="0.28" stop-color="#1F82C6"/>
<stop offset="0.45" stop-color="#25ABDD"/>
<stop offset="0.59" stop-color="#24AAEB"/>
<stop offset="1" stop-color="#35B35B"/>
</linearGradient>
<linearGradient id="paint3_linear_1231_1769" x1="85.14" y1="861.506" x2="1090.07" y2="861.506" gradientUnits="userSpaceOnUse">
<stop stop-color="#EF984A"/>
<stop offset="0.33" stop-color="#FBF141"/>
</linearGradient>
<radialGradient id="paint4_radial_1231_1769" cx="0" cy="0" r="1" gradientUnits="userSpaceOnUse" gradientTransform="translate(102.563 1108) rotate(42.568) scale(91.6529)">
<stop offset="0.07" stop-color="#FFE045"/>
<stop offset="0.31" stop-color="#F8B23E"/>
<stop offset="0.5" stop-color="#F69D3F"/>
<stop offset="0.63" stop-color="#FC9F40"/>
<stop offset="0.88" stop-color="#E56325"/>
<stop offset="1" stop-color="#CC704F"/>
</radialGradient>
</defs>
</svg>
